<?xml version="1.0" encoding="UTF-8" standalone="no"?>
<!-- Created with Inkscape (http://www.inkscape.org/) -->

<svg
   xmlns:dc="http://purl.org/dc/elements/1.1/"
   xmlns:cc="http://creativecommons.org/ns#"
   xmlns:rdf="http://www.w3.org/1999/02/22-rdf-syntax-ns#"
   xmlns:svg="http://www.w3.org/2000/svg"
   xmlns="http://www.w3.org/2000/svg"
   xmlns:sodipodi="http://sodipodi.sourceforge.net/DTD/sodipodi-0.dtd"
   xmlns:inkscape="http://www.inkscape.org/namespaces/inkscape"
   width="4.6792731mm"
   height="6.0879979mm"
   viewBox="0 0 4.6792731 6.0879979"
   version="1.1"
   id="svg3769"
   inkscape:version="0.92.1 r"
   sodipodi:docname="lock.svg">
  <defs
     id="defs3763" />
  <sodipodi:namedview
     id="base"
     pagecolor="#ffffff"
     bordercolor="#666666"
     borderopacity="1.0"
     inkscape:pageopacity="0.0"
     inkscape:pageshadow="2"
     inkscape:zoom="3.959798"
     inkscape:cx="44.314247"
     inkscape:cy="-52.246967"
     inkscape:document-units="mm"
     inkscape:current-layer="layer1"
     showgrid="false"
     inkscape:window-width="1920"
     inkscape:window-height="1140"
     inkscape:window-x="0"
     inkscape:window-y="31"
     inkscape:window-maximized="1" />
  <metadata
     id="metadata3766">
    <rdf:RDF>
      <cc:Work
         rdf:about="">
        <dc:format>image/svg+xml</dc:format>
        <dc:type
           rdf:resource="http://purl.org/dc/dcmitype/StillImage" />
        <dc:title></dc:title>
      </cc:Work>
    </rdf:RDF>
  </metadata>
  <g
     inkscape:label="Layer 1"
     inkscape:groupmode="layer"
     id="layer1"
     transform="translate(-120.88061,-86.825048)">
    <g
       transform="matrix(0.01250788,0,0,0.01250788,120.17625,86.825048)"
       id="g4"
       style="fill:#00e1d4;fill-opacity:1">
      <path
         inkscape:connector-curvature="0"
         d="m 403.88,196.563 h -9.484 V 152.175 C 394.396,70.076 329.245,1.494 247.814,0.03 c -2.225,-0.04 -6.671,-0.04 -8.895,0 C 157.486,1.494 92.336,70.076 92.336,152.175 v 44.388 h -9.485 c -14.616,0 -26.538,15.082 -26.538,33.709 v 222.632 c 0,18.606 11.922,33.829 26.539,33.829 H 403.88 c 14.616,0 26.539,-15.223 26.539,-33.829 V 230.272 c 0,-18.626 -11.922,-33.709 -26.539,-33.709 z M 273.442,341.362 v 67.271 c 0,7.703 -6.449,14.222 -14.158,14.222 H 227.45 c -7.71,0 -14.159,-6.519 -14.159,-14.222 v -67.271 c -7.477,-7.36 -11.83,-17.537 -11.83,-28.795 0,-21.334 16.491,-39.666 37.459,-40.513 2.222,-0.09 6.673,-0.09 8.895,0 20.968,0.847 37.459,19.179 37.459,40.513 -0.002,11.258 -4.355,21.435 -11.832,28.795 z m 58.444,-144.799 h -84.072 -8.895 -84.072 v -44.388 c 0,-48.905 39.744,-89.342 88.519,-89.342 48.775,0 88.521,40.437 88.521,89.342 v 44.388 z"
         id="path2"
         style="fill:#00e1d4;fill-opacity:1" />
    </g>
  </g>
</svg>
